HIERARCHY
ROOT Hips
{
	OFFSET 0.00000 0.00000 0.00000
	CHANNELS 6 Xposition Yposition Zposition Zrotation Yrotation Xrotation 
	JOINT LHipJoint
	{
		OFFSET 0 0 0
		CHANNELS 3 Zrotation Yrotation Xrotation
		JOINT LeftUpLeg
		{
			OFFSET 1.26600 -1.82114 0.91038
			CHANNELS 3 Zrotation Yrotation Xrotation
			JOINT LeftLeg
			{
				OFFSET 2.50076 -6.87080 0.00000
				CHANNELS 3 Zrotation Yrotation Xrotation
				JOINT LeftFoot
				{
					OFFSET 2.57364 -7.07102 0.00000
					CHANNELS 3 Zrotation Yrotation Xrotation
					JOINT LeftToeBase
					{
						OFFSET 0.13572 -0.37290 1.97004
						CHANNELS 3 Zrotation Yrotation Xrotation
						End Site
						{
							OFFSET 0.00000 -0.00000 1.01383
						}
					}
				}
			}
		}
	}
	JOINT RHipJoint
	{
		OFFSET 0 0 0
		CHANNELS 3 Zrotation Yrotation Xrotation
		JOINT RightUpLeg
		{
			OFFSET -1.20803 -1.82114 0.91038
			CHANNELS 3 Zrotation Yrotation Xrotation
			JOINT RightLeg
			{
				OFFSET -2.54916 -7.00377 0.00000
				CHANNELS 3 Zrotation Yrotation Xrotation
				JOINT RightFoot
				{
					OFFSET -2.56374 -7.04382 0.00000
					CHANNELS 3 Zrotation Yrotation Xrotation
					JOINT RightToeBase
					{
						OFFSET -0.23520 -0.64621 2.09921
						CHANNELS 3 Zrotation Yrotation Xrotation
						End Site
						{
							OFFSET -0.00000 -0.00000 1.10065
						}
					}
				}
			}
		}
	}
	JOINT LowerBack
	{
		OFFSET 0 0 0
		CHANNELS 3 Zrotation Yrotation Xrotation
		JOINT Spine
		{
			OFFSET 0.05492 2.10797 -0.12074
			CHANNELS 3 Zrotation Yrotation Xrotation
			JOINT Spine1
			{
				OFFSET 0.04577 2.11592 -0.04483
				CHANNELS 3 Zrotation Yrotation Xrotation
				JOINT Neck
				{
					OFFSET 0 0 0
					CHANNELS 3 Zrotation Yrotation Xrotation
					JOINT Neck1
					{
						OFFSET -0.10759 1.80167 0.15770
						CHANNELS 3 Zrotation Yrotation Xrotation
						JOINT Head
						{
							OFFSET 0.09237 1.77509 -0.40848
							CHANNELS 3 Zrotation Yrotation Xrotation
							End Site
							{
								OFFSET 0.03805 1.84093 -0.15754
							}
						}
					}
				}
				JOINT LeftShoulder
				{
					OFFSET 0 0 0
					CHANNELS 3 Zrotation Yrotation Xrotation
					JOINT LeftArm
					{
						OFFSET 3.42372 1.09575 -0.28209
						CHANNELS 3 Zrotation Yrotation Xrotation
						JOINT LeftForeArm
						{
							OFFSET 4.95681 -0.00000 0.00000
							CHANNELS 3 Zrotation Yrotation Xrotation
							JOINT LeftHand
							{
								OFFSET 3.40915 -0.00000 0.00000
								CHANNELS 3 Zrotation Yrotation Xrotation
								JOINT LeftFingerBase
								{
									OFFSET 0 0 0
									CHANNELS 3 Zrotation Yrotation Xrotation
									JOINT LeftHandIndex1
									{
										OFFSET 0.61640 -0.00000 0.00000
										CHANNELS 3 Zrotation Yrotation Xrotation
										End Site
										{
											OFFSET 0.49696 -0.00000 0.00000
										}
									}
								}
								JOINT LThumb
								{
									OFFSET 0 0 0
									CHANNELS 3 Zrotation Yrotation Xrotation
									End Site
									{
										OFFSET 0.50455 -0.00000 0.50455
									}
								}
							}
						}
					}
				}
				JOINT RightShoulder
				{
					OFFSET 0 0 0
					CHANNELS 3 Zrotation Yrotation Xrotation
					JOINT RightArm
					{
						OFFSET -3.24731 1.15872 -0.32221
						CHANNELS 3 Zrotation Yrotation Xrotation
						JOINT RightForeArm
						{
							OFFSET -5.35200 -0.00000 0.00000
							CHANNELS 3 Zrotation Yrotation Xrotation
							JOINT RightHand
							{
								OFFSET -3.43721 -0.00000 -0.00000
								CHANNELS 3 Zrotation Yrotation Xrotation
								JOINT RightFingerBase
								{
									OFFSET 0 0 0
									CHANNELS 3 Zrotation Yrotation Xrotation
									JOINT RightHandIndex1
									{
										OFFSET -0.72009 -0.00000 0.00000
										CHANNELS 3 Zrotation Yrotation Xrotation
										End Site
										{
											OFFSET -0.58056 -0.00000 0.00000
										}
									}
								}
								JOINT RThumb
								{
									OFFSET 0 0 0
									CHANNELS 3 Zrotation Yrotation Xrotation
									End Site
									{
										OFFSET -0.58942 -0.00000 0.58942
									}
								}
							}
						}
					}
				}
			}
		}
	}
}
MOTION
Frames: 11
Frame Time: .0083333
-14.4489 17.4212 -0.5081 0 0 0 0 0 0 -21 0 0 0 0 0 0 0 0 0 0 0 0 0 0 21 0 0 0 0 0 0 0 0 0 0 0 0 0 0 0 0 0 0 0 0 0 0 -16 0 0 21 0 0 11 0 0 0 -8 0 0 0 0 0 0 0 0 0 0 0 0 0 0 0 0 0 0 0 0 8 0 0 0 0 0 0 0 0 0 0 0 0 0 0 0 0 0
-14.4489 17.4212 -0.5081 -179.3460 2.3818 -177.9290 0.0000 0.0000 0.0000 -23.0281 4.1651 -2.1063 1.2593 7.1137 20.0527 0.4949 -10.2135 -13.4850 0.1015 2.0550 5.6576 0.0000 0.0000 0.0000 15.6316 2.5807 -28.6567 -10.6768 -17.7733 61.7276 -0.4506 -0.3489 -12.8125 -0.0187 -0.8831 2.4271 -3.9580 -0.3492 4.8206 1.2618 -0.4529 3.0995 3.5418 -0.2246 0.5371 -9.1134 -4.0771 -12.3847 2.0979 -0.1694 37.1792 2.8231 0.2284 15.1768 -0.0000 0.0000 0.0000 -85.0987 -3.6549 13.0693 11.8801 -19.6246 -2.0619 -0.0000 -0.0000 4.4135 20.4512 22.0195 7.9592 -7.1250 0.0000 -0.0000 -8.7294 53.1167 -1.7536 -0.0000 0.0000 0.0000 83.3420 -1.1373 10.2487 -17.3160 27.2725 -4.2311 0.0000 -0.0000 -10.0334 -21.7408 12.1509 -4.7980 7.1250 -0.0000 -0.0000 3.8064 -16.9475 2.5372
-14.4550 17.4164 -0.5399 -179.4240 2.1166 -177.9910 0.0000 0.0000 0.0000 -23.1051 4.3272 -1.9117 1.2392 7.0588 19.8897 0.4994 -10.2384 -13.5398 0.0148 0.7855 2.1587 0.0000 0.0000 0.0000 15.5571 1.9683 -29.4962 -10.7371 -17.8040 61.9248 -0.4766 -0.4690 -13.2206 -0.0018 -0.2769 0.7609 -4.0475 -0.4710 4.6256 1.2770 -0.5901 3.3614 3.6110 -0.3009 0.9310 -8.9979 -4.1656 -13.0127 2.0088 -0.2082 37.5513 2.7769 0.2023 15.5120 -0.0000 0.0000 0.0000 -85.0147 -4.5957 12.4363 11.5035 -19.0559 -1.9371 -0.0000 -0.0000 5.7401 18.6620 23.9763 7.8147 -7.1250 0.0000 -0.0000 -11.3443 54.7665 -2.7479 -0.0000 0.0000 0.0000 83.3790 -0.8095 9.8690 -17.2860 27.2333 -4.2174 0.0000 -0.0000 -9.9260 -21.5476 12.3945 -4.8445 7.1250 -0.0000 -0.0000 3.9500 -16.7062 2.6542
-14.4643 17.3935 -0.5685 -179.5460 1.8676 -178.1470 0.0000 0.0000 0.0000 -23.2427 4.4405 -1.6828 1.2370 7.0529 19.8722 0.5060 -10.3374 -13.6385 0.0011 -0.2125 -0.5838 0.0000 0.0000 0.0000 15.4552 1.2832 -30.2229 -10.7470 -17.8090 61.9572 -0.4852 -0.8500 -13.4935 -0.0057 0.4877 -1.3401 -4.1602 -0.6251 4.6539 1.3062 -0.7909 3.4533 3.7118 -0.4043 1.0319 -9.1685 -4.1068 -12.7658 2.1128 -0.1711 37.3432 2.8458 0.2064 15.3492 -0.0000 -0.0000 0.0000 -85.0500 -4.6998 12.3875 11.6846 -19.3300 -1.9967 -0.0000 -0.0000 6.4845 18.6487 24.2241 7.8837 -7.1250 0.0000 -0.0000 -11.4700 55.0130 -2.8481 -0.0000 -0.0000 0.0000 83.3840 -0.8809 9.6491 -17.3295 27.2901 -4.2373 0.0000 -0.0000 -9.7064 -21.4093 12.2879 -4.7699 7.1250 -0.0000 -0.0000 4.0421 -16.8327 2.7052
-14.4697 17.3926 -0.5962 -179.5920 1.7498 -178.1610 0.0000 0.0000 0.0000 -23.2942 4.3601 -1.5001 1.2322 7.0395 19.8325 0.4941 -10.5202 -13.5734 0.0085 0.5956 1.6367 0.0000 0.0000 0.0000 15.4539 1.0745 -30.8805 -10.7106 -17.7905 61.8382 -0.4575 -1.2685 -13.3003 -0.0006 -0.1627 0.4471 -4.3839 -0.8270 4.7081 1.4505 -1.0866 3.2660 4.0001 -0.5555 0.8449 -9.4674 -3.9062 -11.9218 2.1151 0.1218 36.9621 2.9257 0.3106 14.9495 0.0000 -0.0000 0.0000 -85.1883 -3.9885 13.1041 12.1485 -20.0270 -2.1529 -0.0000 -0.0000 5.2824 19.6757 24.1761 8.3312 -7.1250 0.0000 -0.0000 -10.3919 55.1678 -2.6151 0.0000 -0.0000 0.0000 83.1511 -1.4239 9.9978 -17.3984 27.3800 -4.2689 0.0000 -0.0000 -9.7884 -21.3502 12.6420 -4.8898 7.1250 -0.0000 -0.0000 4.0963 -16.4619 2.7748
-14.4710 17.3891 -0.6254 -179.7240 1.8489 -178.0440 0.0000 0.0000 0.0000 -23.4747 4.3139 -1.4939 1.2339 7.0443 19.8465 0.5000 -10.5858 -13.6552 0.0688 1.6927 4.6571 0.0000 0.0000 0.0000 15.3966 1.1129 -31.6238 -10.6267 -17.7475 61.5633 -0.5028 -1.1282 -13.8505 -0.0009 0.1912 -0.5253 -4.6690 -0.8711 4.5083 1.4903 -1.1519 3.2523 4.2014 -0.5982 0.9575 -9.6152 -3.9514 -12.0965 2.2106 0.1704 37.3439 3.0212 0.3305 15.1775 -0.0000 0.0000 0.0000 -85.1468 -3.7563 15.5658 12.4553 -20.4840 -2.2591 -0.0000 -0.0000 0.1669 23.3100 22.2748 9.2758 -7.1250 0.0000 -0.0000 -5.8999 53.9216 -1.2975 -0.0000 0.0000 0.0000 83.1066 -1.6382 10.0516 -17.4586 27.4584 -4.2967 0.0000 -0.0000 -9.9143 -21.3234 12.6453 -4.8843 7.1250 -0.0000 -0.0000 4.1149 -16.4610 2.7875
-14.4710 17.3841 -0.6561 -179.6570 1.8047 -178.0560 0.0000 0.0000 0.0000 -23.3967 4.3273 -1.3285 1.2277 7.0273 19.7963 0.5111 -10.6735 -13.7982 0.0877 1.9100 5.2570 0.0000 0.0000 0.0000 15.5962 0.8957 -32.2259 -10.4749 -17.6684 61.0643 -0.5859 -0.8030 -14.7733 -0.0245 1.0107 -2.7783 -4.5673 -0.8130 4.5016 1.4361 -1.0568 3.4007 4.0834 -0.5500 1.1010 -9.4361 -4.1933 -12.8916 2.3457 -0.1142 38.0278 3.0414 0.2456 15.7269 0.0000 -0.0000 0.0000 -84.7791 -4.5572 13.6598 12.4474 -20.4722 -2.2563 -0.0000 -0.0000 6.5254 18.0124 23.5188 7.3931 -7.1250 0.0000 -0.0000 -11.8020 54.1823 -2.6920 0.0000 -0.0000 0.0000 83.4701 -1.5625 9.5546 -17.4344 27.4269 -4.2855 0.0000 -0.0000 -10.0918 -21.4728 12.8368 -4.9947 7.1250 -0.0000 -0.0000 4.0190 -16.2430 2.7412
-14.4717 17.3928 -0.6821 -179.3500 1.4996 -178.0540 0.0000 0.0000 0.0000 -23.0100 4.1911 -1.1286 1.2174 6.9989 19.7120 0.4988 -10.8277 -13.7229 0.0621 1.6076 4.4224 0.0000 0.0000 0.0000 16.0474 0.5260 -32.8310 -10.2603 -17.5536 60.3548 -0.5331 -1.3038 -14.3260 -0.0004 0.1235 -0.3394 -4.2477 -0.8609 4.8935 1.5117 -1.1329 3.2341 3.9918 -0.5724 0.7113 -9.2127 -4.2617 -13.0712 2.2883 -0.1549 38.3752 2.9924 0.2651 15.9480 -0.0000 0.0000 0.0000 -84.6647 -4.5706 15.6313 12.4129 -20.4210 -2.2443 -0.0000 -0.0000 2.9124 16.7682 26.8263 7.7435 -7.1250 0.0000 -0.0000 -14.7472 57.2079 -4.4760 -0.0000 0.0000 0.0000 83.6826 -1.9834 9.3579 -17.4444 27.4399 -4.2901 0.0000 -0.0000 -10.4599 -21.4803 13.3181 -5.1796 7.1250 -0.0000 -0.0000 4.0338 -15.7306 2.7961
-14.4711 17.3977 -0.7067 -179.3120 1.3749 -177.9830 0.0000 0.0000 0.0000 -22.9710 4.0474 -0.9876 1.1988 6.9471 19.5589 0.4960 -10.7399 -13.6647 0.0359 1.2236 3.3643 0.0000 0.0000 0.0000 16.1778 0.4784 -33.4157 -9.9896 -17.4040 59.4536 -0.4530 -1.9097 -13.5529 -0.0223 -0.9635 2.6483 -4.3715 -0.9384 5.1003 1.6349 -1.2640 3.0187 4.2010 -0.6341 0.3930 -9.0974 -4.2099 -12.7476 2.1707 -0.0684 38.3342 2.9335 0.3173 15.8404 -0.0000 0.0000 0.0000 -84.8053 -4.7209 15.4250 12.2037 -20.1094 -2.1718 -0.0000 -0.0000 3.1588 19.3707 25.4414 8.5887 -7.1250 0.0000 -0.0000 -11.2956 56.3820 -3.1810 -0.0000 0.0000 0.0000 83.5898 -2.5788 9.5842 -17.5439 27.5692 -4.3361 0.0000 -0.0000 -10.8037 -21.1809 13.4418 -5.1471 7.1250 -0.0000 -0.0000 4.2448 -15.6298 2.9524
-14.4660 17.3974 -0.7402 -179.3810 1.4451 -177.9430 0.0000 0.0000 0.0000 -23.0492 4.0619 -0.7933 1.1673 6.8585 19.2969 0.4931 -10.5764 -13.5808 0.0339 1.1889 3.2687 0.0000 0.0000 0.0000 16.2279 0.6916 -33.8369 -9.6817 -17.2269 58.4192 -0.4467 -2.0488 -13.5376 -0.0303 -1.1243 3.0908 -4.6234 -0.9498 4.9064 1.6974 -1.2780 3.0910 4.4044 -0.6508 0.5862 -9.0565 -4.2050 -12.3763 2.2106 -0.2123 37.9630 2.8965 0.2618 15.5693 0.0000 0.0000 0.0000 -84.8788 -4.7241 16.7842 12.4284 -20.4440 -2.2497 -0.0000 -0.0000 0.5436 23.3399 23.0764 9.5994 -7.1250 0.0000 -0.0000 -6.1466 54.7672 -1.4788 0.0000 0.0000 0.0000 83.5660 -2.8018 9.8875 -17.6636 27.7243 -4.3916 0.0000 -0.0000 -11.1065 -21.0655 13.4426 -5.1168 7.1250 -0.0000 -0.0000 4.3242 -15.6407 3.0070
-14.4618 17.3930 -0.7798 -179.2250 1.4206 -178.0480 0.0000 0.0000 0.0000 -22.8345 4.2616 -0.4239 1.1334 6.7614 19.0104 0.4788 -10.5753 -13.4320 0.0279 1.0787 2.9654 0.0000 0.0000 0.0000 16.5403 0.7294 -34.0233 -9.3341 -17.0180 57.2386 -0.4639 -2.0992 -13.8015 -0.0242 -1.0036 2.7586 -4.4635 -0.9038 4.8343 1.6954 -1.1926 3.2632 4.3056 -0.6090 0.7911 -9.0782 -4.2137 -12.3306 2.3619 -0.3810 37.6493 2.9189 0.1917 15.4102 0.0000 -0.0000 0.0000 -84.6854 -4.6415 17.3804 13.1764 -21.5451 -2.5177 -0.0000 -0.0000 1.9563 21.1951 24.9012 9.2731 -7.1250 0.0000 -0.0000 -9.1280 56.2148 -2.5255 0.0000 -0.0000 0.0000 83.8318 -2.7839 9.6033 -17.5888 27.6274 -4.3569 0.0000 -0.0000 -11.0230 -21.1804 13.2926 -5.0911 7.1250 -0.0000 -0.0000 4.2390 -15.7881 2.9339
